<svg width="18" height="18" viewBox="0 0 18 18" fill="none" xmlns="http://www.w3.org/2000/svg">
<path d="M3.02346 12.69L2.13848 7.41088C2.00468 6.6127 1.93778 6.2136 2.15202 5.95202C2.36626 5.69043 2.76002 5.69043 3.54753 5.69043H14.451C15.2385 5.69043 15.6323 5.69043 15.8465 5.95202C16.0608 6.2136 15.9939 6.6127 15.8601 7.41088L14.9751 12.69C14.6818 14.4398 14.5351 15.3146 13.9363 15.8334C13.3375 16.3522 12.4743 16.3522 10.7479 16.3522H7.25061C5.52424 16.3522 4.66106 16.3522 4.06225 15.8334C3.46344 15.3146 3.31678 14.4398 3.02346 12.69Z" stroke="#364A15"/>
<path d="M13.0434 5.6906C13.0434 3.4571 11.2328 1.64648 8.99932 1.64648C6.76581 1.64648 4.9552 3.4571 4.9552 5.6906" stroke="#364A15"/>
</svg>
