<svg width="22" height="22" viewBox="0 0 22 22" fill="none" xmlns="http://www.w3.org/2000/svg">
<path d="M1.91199 4.23509L1.19806 4.0053H1.19806L1.91199 4.23509ZM1.22827 6.35933L1.94219 6.58912L1.22827 6.35933ZM20.088 4.23509L19.3741 4.46488V4.46488L20.088 4.23509ZM20.7717 6.35933L21.4857 6.12954L20.7717 6.35933ZM8.65635 8.77316C8.36534 8.47841 7.89047 8.47538 7.59572 8.7664C7.30096 9.05742 7.29793 9.53228 7.58895 9.82703L8.65635 8.77316ZM14.4112 8.77261C14.1202 8.47778 13.6454 8.47464 13.3505 8.76559C13.0557 9.05654 13.0526 9.5314 13.3435 9.82623L14.4112 8.77261ZM1.37533 8.57004L1.98333 8.13091L1.98333 8.13091L1.37533 8.57004ZM9.87269 7.68818C9.97662 7.28722 9.73583 6.87792 9.33487 6.77399C8.9339 6.67006 8.52461 6.91085 8.42068 7.31182L9.87269 7.68818ZM15.6267 7.68818C15.7306 7.28722 15.4899 6.87792 15.0889 6.77399C14.6879 6.67006 14.2786 6.91085 14.1747 7.31182L15.6267 7.68818ZM20.6247 8.57004L20.0167 8.13091V8.13091L20.6247 8.57004ZM20.9735 7.70667L20.2325 7.59103V7.59103L20.9735 7.70667ZM1.0265 7.70667L0.28547 7.82231L1.0265 7.70667ZM3.05507 1.87752L2.60645 1.27649L2.60645 1.27649L3.05507 1.87752ZM1.19806 4.0053L0.514335 6.12954L1.94219 6.58912L2.62592 4.46488L1.19806 4.0053ZM19.3741 4.46488L20.0578 6.58912L21.4857 6.12954L20.8019 4.0053L19.3741 4.46488ZM5.57622 2.25H16.4238V0.75H5.57622V2.25ZM10.9993 9.75C10.0804 9.75 9.25175 9.37621 8.65635 8.77316L7.58895 9.82703C8.45574 10.705 9.66463 11.25 10.9993 11.25V9.75ZM16.7547 9.75C15.8355 9.75 15.0066 9.37598 14.4112 8.77261L13.3435 9.82623C14.2104 10.7046 15.4196 11.25 16.7547 11.25V9.75ZM5.2453 9.75C4.01112 9.75 2.67028 9.08203 1.98333 8.13091L0.76733 9.00917C1.75148 10.3718 3.55603 11.25 5.2453 11.25V9.75ZM8.42068 7.31182C8.05796 8.71116 6.77553 9.75 5.2453 9.75V11.25C7.46912 11.25 9.34104 9.7393 9.87269 7.68818L8.42068 7.31182ZM14.1747 7.31182C13.812 8.71116 12.5296 9.75 10.9993 9.75V11.25C13.2231 11.25 15.0951 9.7393 15.6267 7.68818L14.1747 7.31182ZM20.0167 8.13091C19.3297 9.08203 17.9889 9.75 16.7547 9.75V11.25C18.444 11.25 20.2485 10.3718 21.2327 9.00917L20.0167 8.13091ZM20.0578 6.58912C20.2449 7.1704 20.2777 7.30138 20.2325 7.59103L21.7145 7.82231C21.8208 7.1415 21.6686 6.69774 21.4857 6.12954L20.0578 6.58912ZM21.2327 9.00917C21.3174 8.89189 21.4327 8.73648 21.5243 8.53046C21.617 8.32192 21.6717 8.09674 21.7145 7.82231L20.2325 7.59103C20.1996 7.80184 20.1709 7.88229 20.1536 7.92111C20.1353 7.96244 20.114 7.99609 20.0167 8.13091L21.2327 9.00917ZM20.8019 4.0053C20.5947 3.36137 20.4214 2.81957 20.2309 2.39553C20.0333 1.95545 19.7871 1.57024 19.3936 1.27649L18.4963 2.47854C18.6085 2.56231 18.7215 2.69586 18.8627 3.01018C19.0111 3.34054 19.1565 3.78877 19.3741 4.46488L20.8019 4.0053ZM16.4238 2.25C17.1135 2.25 17.5655 2.25121 17.9105 2.292C18.2346 2.33033 18.3863 2.39642 18.4963 2.47854L19.3936 1.27649C18.9978 0.9811 18.5607 0.858429 18.0866 0.802377C17.6333 0.748786 17.0777 0.75 16.4238 0.75V2.25ZM0.514335 6.12954C0.331449 6.69774 0.179227 7.1415 0.28547 7.82231L1.76753 7.59103C1.72233 7.30137 1.7551 7.1704 1.94219 6.58912L0.514335 6.12954ZM1.98333 8.13091C1.88596 7.99609 1.86474 7.96244 1.84636 7.92111C1.82911 7.88229 1.80043 7.80184 1.76753 7.59103L0.28547 7.82231C0.328295 8.09674 0.382998 8.32192 0.475709 8.53046C0.5673 8.73648 0.682629 8.89189 0.76733 9.00917L1.98333 8.13091ZM2.62592 4.46488C2.84354 3.78877 2.98895 3.34054 3.13735 3.01018C3.27854 2.69586 3.39148 2.56231 3.5037 2.47854L2.60645 1.27649C2.21291 1.57024 1.96674 1.95545 1.76906 2.39553C1.57858 2.81957 1.40532 3.36137 1.19806 4.0053L2.62592 4.46488ZM5.57622 0.75C4.9223 0.75 4.36666 0.748786 3.9134 0.802377C3.43932 0.858429 3.00218 0.9811 2.60645 1.27649L3.5037 2.47854C3.61373 2.39642 3.76536 2.33033 4.08952 2.292C4.43449 2.25121 4.88655 2.25 5.57622 2.25V0.75Z" fill="#364A15"/>
<path d="M2 9.5V14.5C2 17.3284 2 18.7426 2.87868 19.6213C3.75736 20.5 5.17157 20.5 8 20.5H14C16.8284 20.5 18.2426 20.5 19.1213 19.6213C20 18.7426 20 17.3284 20 14.5V9.5" stroke="#364A15" stroke-width="1.5"/>
<path d="M6 17H10" stroke="#364A15" stroke-width="1.5" stroke-linecap="round"/>
</svg>
